<?xml version="1.0" encoding="utf-8"?>
<!-- Generator: Adobe Illustrator 25.2.3, SVG Export Plug-In . SVG Version: 6.00 Build 0)  -->
<svg version="1.1" id="Layer_1" xmlns="http://www.w3.org/2000/svg" xmlns:xlink="http://www.w3.org/1999/xlink" x="0px" y="0px"
	 viewBox="0 0 496.1 165.1" style="enable-background:new 0 0 496.1 165.1;" xml:space="preserve">
<style type="text/css">
	.st0{fill:none;stroke:#000000;stroke-width:6;stroke-linecap:round;stroke-linejoin:round;stroke-miterlimit:10;}
</style>
<path class="st0" d="M50.3,49.5c0.8,19.2,1.6,38.5,2.5,57.7c0-16.8,0.1-33.7,0.1-50.5c0-3.7,0.1-7.6,1.8-10.9
	c3.1-5.8,11.1-7.6,17.3-5.3s10.5,8,13.2,14c5.3,12.1,4.5,26.9-2.7,38.1c-7.1,11.2-20.5,18.2-33.7,17.1c-6.5-0.5-13.3-3.2-16.8-8.7
	c-3.5-5.5-2.2-14.1,3.7-17c5.7-2.8,12.6,0.8,16.9,5.6c4.2,4.8,7.1,10.7,11.9,14.9c7,6.1,17.8,7.2,25.9,2.8s12.9-14.2,11.6-23.3
	c-1.4,7.2-2,16.3,4.2,20c5.5,3.3,13-0.5,16-6.1c3-5.6,2.8-12.4,2.5-18.7c0.2,16,0.4,31.9,0.6,47.9c0.1,6.8,0,14.2-4.3,19.5
	c-4.2,5.3-14.2,6.1-16.9-0.1c-3-6.9,4.8-13.2,11.1-17.3c32.8-21.5,50.6-63.6,43.4-102.1c-0.5-2.7-1.3-5.6-3.6-7.1
	c-2.8-1.8-6.8-0.4-9,2.2c-2.1,2.6-2.9,6.1-3.4,9.4c-2.2,14.2-2.2,28.7,0.1,42.9c2.3,14.7,10,31.5,24.8,33.1
	c12.6,1.4,24.3-12.3,20.9-24.5c-0.8-3-2.8-6.2-6-6.5c-4-0.4-6.8,3.8-8.5,7.6c-2.5,5.8-4.1,13.9,1.3,17.1c4,2.3,9.4-0.3,11.7-4.3
	c2.3-4,2.4-8.9,2.5-13.5c-1.4,5.9-2.9,12.3-0.5,17.9s10.3,9.1,14.8,4.9c1.9-1.8,2.7-4.4,3.3-6.9c1.8-7.3,2.9-14.8,3.2-22.3
	c-0.9,6.3-1.9,12.6-2.8,18.9c-0.3,2.1-0.6,4.4,0.5,6.3s4,2.7,5.3,1c-0.8-10.4,3.4-21.1,11-28.3c1.8-1.7,4.5-3.4,6.8-2.3
	c1.4,0.6,2.3,2.2,2.8,3.7c1.7,5.2,0.2,10.9-0.1,16.3c-0.4,5.5,1,11.9,6,14.2s11.8-4.7,7.9-8.4"/>
<path class="st0" d="M323.9,40.5c-5.3-8.6-17.5-11.1-26.7-7.1c-9.2,4-15.4,13.2-18,22.9c-2.4,9-2,19.1,3,26.9
	c5,7.8,15.2,12.6,24,9.6c9.7-3.3,14.7-14.2,16.3-24.4c0.6-3.7,0.9-7.8-1-11c-3.2-5.6-12.8-5.7-16.1-0.2s1.3,14,7.8,14.1
	c6.5,0.1,11.5-8.1,8.4-13.8c-0.4,17.5-0.8,35.1-1.2,52.6c-0.2,7.8-0.4,16-4.3,22.8c-3.9,6.8-12.7,11.4-19.7,8.1
	c-8.6-4.1-7.2-19.5,2.1-22c5.6-1.5,11.5,1.3,17.3,1.3c9.4-0.1,17.3-7.7,20.7-16.5s3.2-18.4,2.9-27.8c4.8,6.7-1.4,18.1,4.8,23.6
	c4.5,4,12.2,0.6,14.8-4.8c2.5-5.4,1.5-11.8,0.4-17.7c0.5,6.1,0.9,12.3,1.4,18.4c0.1,1.6,0.3,3.2,1.2,4.5c2.7,3.5,8.6,0.4,10-3.8
	c1.3-4.2,0.2-8.8,1.1-13c0.9-4.3,5.9-8.3,9.5-5.7c1.4,1.1,2,2.9,2.5,4.6c1.6,6.1,2.1,12.6,1.3,18.9c1.9-4.9,0.4-10.4,0.6-15.7
	c0.2-5.3,3.6-11.4,8.8-11c4.5,0.4,7.2,5.4,7.8,9.9c0.7,4.5,0.3,9.3,2.7,13.2c-1.5-5.3-3-11-1.2-16.2c1.8-5.2,8.5-9,13-5.9
	c1.9,1.3,3,3.6,3.9,5.7c2.3,5.7,3.8,11.8,4.4,17.9c-2-6.8-2.6-16.5,4.2-18.7c-6.2,6.5-0.5,19.6,8.5,19.4c7.8-0.1,13.2-7.7,15.7-15.1
	c2.1-6.2,2.5-14.4-2.9-18.1c-6.1,3-8.6,10.3-10,17c-0.6,3-1.2,6.3,0,9.1c1.2,2.9,4.7,4.9,7.5,3.5c2-1.1,2.7-3.4,3.4-5.6
	c1.8-6.1,3.5-12.3,5.3-18.4c-1.6,5.1-3.3,10.3-2.9,15.6s3.3,10.8,8.4,12.6c5,1.8,11.7-1.8,11.6-7.1"/>
</svg>
